# Blender v2.78 (sub 0) OBJ File: ''
# www.blender.org
mtllib car.mtl
o Cube.001_Cube.002
v -1.000000 0.400695 1.000000
v -1.000000 1.359522 1.000000
v -1.000000 0.400695 -1.000000
v -1.000000 1.088737 -0.877102
v 1.000000 0.400695 1.000000
v 1.000000 1.359522 1.000000
v 1.000000 0.400695 -1.000000
v 1.000000 1.088737 -0.877102
v -1.190201 -0.404532 2.287748
v -1.190201 0.404532 2.287748
v -1.190201 -0.404532 -2.287748
v -1.190201 0.404532 -2.287748
v 1.190201 -0.404532 2.287748
v 1.190201 0.404532 2.287748
v 1.190201 -0.404532 -2.287748
v 1.190201 0.404532 -2.287748
v -1.303577 -0.399970 -1.915369
v -1.179935 -0.399970 -1.915369
v -1.303577 -0.508098 -1.883620
v -1.179935 -0.508098 -1.883620
v -1.303577 -0.581896 -1.798452
v -1.179935 -0.581896 -1.798452
v -1.303577 -0.597934 -1.686906
v -1.179935 -0.597934 -1.686906
v -1.303577 -0.551119 -1.584397
v -1.179935 -0.551119 -1.584397
v -1.303577 -0.456316 -1.523471
v -1.179935 -0.456316 -1.523471
v -1.303577 -0.343623 -1.523471
v -1.179935 -0.343623 -1.523471
v -1.303577 -0.248820 -1.584397
v -1.179935 -0.248820 -1.584397
v -1.303577 -0.202005 -1.686906
v -1.179935 -0.202005 -1.686906
v -1.303577 -0.218043 -1.798452
v -1.179935 -0.218043 -1.798452
v -1.303577 -0.291841 -1.883620
v -1.179935 -0.291841 -1.883620
v 1.303577 -0.399970 -1.915369
v 1.179935 -0.399970 -1.915369
v 1.303577 -0.508098 -1.883620
v 1.179935 -0.508098 -1.883620
v 1.303577 -0.581896 -1.798452
v 1.179935 -0.581896 -1.798452
v 1.303577 -0.597934 -1.686906
v 1.179935 -0.597934 -1.686906
v 1.303577 -0.551119 -1.584397
v 1.179935 -0.551119 -1.584397
v 1.303577 -0.456316 -1.523470
v 1.179935 -0.456316 -1.523470
v 1.303577 -0.343623 -1.523470
v 1.179935 -0.343623 -1.523470
v 1.303577 -0.248820 -1.584397
v 1.179935 -0.248820 -1.584397
v 1.303577 -0.202005 -1.686906
v 1.179935 -0.202005 -1.686906
v 1.303577 -0.218043 -1.798452
v 1.179935 -0.218043 -1.798452
v 1.303577 -0.291841 -1.883620
v 1.179935 -0.291841 -1.883620
v -1.303577 -0.399970 1.915369
v -1.179935 -0.399970 1.915369
v -1.303577 -0.508098 1.883620
v -1.179935 -0.508098 1.883620
v -1.303577 -0.581896 1.798452
v -1.179935 -0.581896 1.798452
v -1.303577 -0.597934 1.686906
v -1.179935 -0.597934 1.686906
v -1.303577 -0.551119 1.584397
v -1.179935 -0.551119 1.584397
v -1.303577 -0.456316 1.523471
v -1.179935 -0.456316 1.523471
v -1.303577 -0.343623 1.523471
v -1.179935 -0.343623 1.523471
v -1.303577 -0.248820 1.584397
v -1.179935 -0.248820 1.584397
v -1.303577 -0.202005 1.686906
v -1.179935 -0.202005 1.686906
v -1.303577 -0.218043 1.798452
v -1.179935 -0.218043 1.798452
v -1.303577 -0.291841 1.883620
v -1.179935 -0.291841 1.883620
v 1.303577 -0.399970 1.915369
v 1.179935 -0.399970 1.915369
v 1.303577 -0.508098 1.883620
v 1.179935 -0.508098 1.883620
v 1.303577 -0.581896 1.798452
v 1.179935 -0.581896 1.798452
v 1.303577 -0.597934 1.686906
v 1.179935 -0.597934 1.686906
v 1.303577 -0.551119 1.584397
v 1.179935 -0.551119 1.584397
v 1.303577 -0.456316 1.523471
v 1.179935 -0.456316 1.523471
v 1.303577 -0.343623 1.523471
v 1.179935 -0.343623 1.523471
v 1.303577 -0.248820 1.584397
v 1.179935 -0.248820 1.584397
v 1.303577 -0.202005 1.686906
v 1.179935 -0.202005 1.686906
v 1.303577 -0.218043 1.798452
v 1.179935 -0.218043 1.798452
v 1.303577 -0.291841 1.883620
v 1.179935 -0.291841 1.883620
vt 0.4471 0.2219
vt 0.4471 0.0815
vt 0.5788 0.1212
vt 0.5874 0.2219
vt 0.6885 0.2219
vt 0.6885 0.3623
vt 0.5874 0.3623
vt 0.5788 0.4630
vt 0.4471 0.5027
vt 0.4471 0.3623
vt 0.3067 0.3623
vt 0.3067 0.2219
vt 0.8261 0.2219
vt 0.8261 0.3623
vt 0.1926 0.8916
vt 0.0064 0.8916
vt 0.0064 0.5381
vt 0.1926 0.5381
vt 0.1926 0.4355
vt 0.3789 0.4355
vt 0.3789 0.5381
vt 0.5652 0.5381
vt 0.5652 0.8916
vt 0.3789 0.8916
vt 0.3789 0.9943
vt 0.1926 0.9943
vt 0.7515 0.5381
vt 0.7515 0.8916
vt 0.6198 0.0001
vt 0.6198 0.0599
vt 0.5635 0.0599
vt 0.5635 0.0001
vt 0.5071 0.0599
vt 0.5071 0.0001
vt 0.4508 0.0599
vt 0.4508 0.0001
vt 0.3945 0.0599
vt 0.3945 0.0001
vt 0.3381 0.0599
vt 0.3381 0.0001
vt 0.2818 0.0599
vt 0.2818 0.0001
vt 0.2255 0.0599
vt 0.2255 0.0001
vt 0.1691 0.0599
vt 0.1691 0.0001
vt 0.1128 0.0599
vt 0.1128 0.0001
vt 0.8099 0.1376
vt 0.7730 0.1802
vt 0.7190 0.1960
vt 0.6649 0.1802
vt 0.6280 0.1376
vt 0.6200 0.0818
vt 0.6434 0.0306
vt 0.6908 0.0001
vt 0.7471 0.0001
vt 0.7945 0.0306
vt 0.8179 0.0818
vt 0.0565 0.0599
vt 0.0565 0.0001
vt 0.0001 0.0599
vt 0.0001 0.0001
vt 0.6649 0.1803
vt 0.6278 0.1379
vt 0.6195 0.0822
vt 0.6427 0.0309
vt 0.6899 0.0002
vt 0.7463 -0.0001
vt 0.7938 0.0302
vt 0.8174 0.0813
vt 0.8097 0.1371
vt 0.7730 0.1798
vt 0.7190 0.1960
vt 0.6198 0.0001
vt 0.5635 0.0001
vt 0.5635 0.0599
vt 0.6198 0.0599
vt 0.5071 0.0001
vt 0.5071 0.0599
vt 0.4508 0.0001
vt 0.4508 0.0599
vt 0.3945 0.0001
vt 0.3945 0.0599
vt 0.3381 0.0001
vt 0.3381 0.0599
vt 0.2818 0.0001
vt 0.2818 0.0599
vt 0.2255 0.0001
vt 0.2255 0.0599
vt 0.1691 0.0001
vt 0.1691 0.0599
vt 0.1128 0.0001
vt 0.1128 0.0599
vt 0.8099 0.1376
vt 0.8179 0.0818
vt 0.7945 0.0306
vt 0.7471 0.0001
vt 0.6908 0.0001
vt 0.6434 0.0306
vt 0.6200 0.0818
vt 0.6280 0.1376
vt 0.6649 0.1802
vt 0.7190 0.1960
vt 0.7730 0.1802
vt 0.0565 0.0001
vt 0.0565 0.0599
vt 0.0001 0.0001
vt 0.0001 0.0599
vt 0.6649 0.1803
vt 0.7190 0.1960
vt 0.7730 0.1798
vt 0.8097 0.1371
vt 0.8174 0.0813
vt 0.7938 0.0302
vt 0.7463 -0.0001
vt 0.6899 0.0002
vt 0.6427 0.0309
vt 0.6195 0.0822
vt 0.6278 0.1379
vt 0.6198 0.0001
vt 0.5635 0.0001
vt 0.5635 0.0599
vt 0.6198 0.0599
vt 0.5071 0.0001
vt 0.5071 0.0599
vt 0.4508 0.0001
vt 0.4508 0.0599
vt 0.3945 0.0001
vt 0.3945 0.0599
vt 0.3381 0.0001
vt 0.3381 0.0599
vt 0.2818 0.0001
vt 0.2818 0.0599
vt 0.2255 0.0001
vt 0.2255 0.0599
vt 0.1691 0.0001
vt 0.1691 0.0599
vt 0.1128 0.0001
vt 0.1128 0.0599
vt 0.8099 0.1376
vt 0.8179 0.0818
vt 0.7945 0.0306
vt 0.7471 0.0001
vt 0.6908 0.0001
vt 0.6434 0.0306
vt 0.6200 0.0818
vt 0.6280 0.1376
vt 0.6649 0.1802
vt 0.7190 0.1960
vt 0.7730 0.1802
vt 0.0565 0.0001
vt 0.0565 0.0599
vt 0.0001 0.0001
vt 0.0001 0.0599
vt 0.6649 0.1803
vt 0.7190 0.1960
vt 0.7730 0.1798
vt 0.8097 0.1371
vt 0.8174 0.0813
vt 0.7938 0.0302
vt 0.7463 -0.0001
vt 0.6899 0.0002
vt 0.6427 0.0309
vt 0.6195 0.0822
vt 0.6278 0.1379
vt 0.6198 0.0001
vt 0.6198 0.0599
vt 0.5635 0.0599
vt 0.5635 0.0001
vt 0.5071 0.0599
vt 0.5071 0.0001
vt 0.4508 0.0599
vt 0.4508 0.0001
vt 0.3945 0.0599
vt 0.3945 0.0001
vt 0.3381 0.0599
vt 0.3381 0.0001
vt 0.2818 0.0599
vt 0.2818 0.0001
vt 0.2255 0.0599
vt 0.2255 0.0001
vt 0.1691 0.0599
vt 0.1691 0.0001
vt 0.1128 0.0599
vt 0.1128 0.0001
vt 0.8099 0.1376
vt 0.7730 0.1802
vt 0.7190 0.1960
vt 0.6649 0.1802
vt 0.6280 0.1376
vt 0.6200 0.0818
vt 0.6434 0.0306
vt 0.6908 0.0001
vt 0.7471 0.0001
vt 0.7945 0.0306
vt 0.8179 0.0818
vt 0.0565 0.0599
vt 0.0565 0.0001
vt 0.0001 0.0599
vt 0.0001 0.0001
vt 0.6649 0.1803
vt 0.6278 0.1379
vt 0.6195 0.0822
vt 0.6427 0.0309
vt 0.6899 0.0002
vt 0.7463 -0.0001
vt 0.7938 0.0302
vt 0.8174 0.0813
vt 0.8097 0.1371
vt 0.7730 0.1798
vt 0.7190 0.1960
vn -1.0000 -0.0000 0.0000
vn 0.0000 0.1758 -0.9844
vn 1.0000 0.0000 0.0000
vn 0.0000 0.0000 1.0000
vn 0.0000 -1.0000 0.0000
vn 0.0000 0.9898 -0.1428
vn 0.0000 0.0000 -1.0000
vn 0.0000 1.0000 0.0000
vn 0.0000 -0.2817 -0.9595
vn 0.0000 -0.7557 -0.6549
vn 0.0000 -0.9898 -0.1423
vn 0.0000 -0.9096 0.4154
vn 0.0000 -0.5406 0.8413
vn 0.0000 0.5406 0.8413
vn 0.0000 0.9096 0.4154
vn 0.0000 0.9898 -0.1423
vn 0.0000 0.7557 -0.6549
vn 0.0000 0.2817 -0.9595
vn 0.0000 -0.2817 0.9595
vn 0.0000 -0.7557 0.6549
vn 0.0000 -0.9898 0.1423
vn 0.0000 -0.9096 -0.4154
vn 0.0000 -0.5406 -0.8413
vn 0.0000 0.5406 -0.8413
vn 0.0000 0.9096 -0.4154
vn 0.0000 0.9898 0.1423
vn 0.0000 0.7557 0.6549
vn 0.0000 0.2817 0.9595
usemtl Material
s off
f 1/1/1 2/2/1 4/3/1 3/4/1
f 3/4/2 4/5/2 8/6/2 7/7/2
f 7/7/3 8/8/3 6/9/3 5/10/3
f 5/10/4 6/11/4 2/12/4 1/1/4
f 3/4/5 7/7/5 5/10/5 1/1/5
f 8/6/6 4/5/6 2/13/6 6/14/6
f 9/15/1 10/16/1 12/17/1 11/18/1
f 11/18/7 12/19/7 16/20/7 15/21/7
f 15/21/3 16/22/3 14/23/3 13/24/3
f 13/24/4 14/25/4 10/26/4 9/15/4
f 11/18/5 15/21/5 13/24/5 9/15/5
f 16/22/8 12/27/8 10/28/8 14/23/8
f 17/29/9 18/30/9 20/31/9 19/32/9
f 19/32/10 20/31/10 22/33/10 21/34/10
f 21/34/11 22/33/11 24/35/11 23/36/11
f 23/36/12 24/35/12 26/37/12 25/38/12
f 25/38/13 26/37/13 28/39/13 27/40/13
f 27/40/4 28/39/4 30/41/4 29/42/4
f 29/42/14 30/41/14 32/43/14 31/44/14
f 31/44/15 32/43/15 34/45/15 33/46/15
f 33/46/16 34/45/16 36/47/16 35/48/16
f 20/49/3 18/50/3 38/51/3 36/52/3 34/53/3 32/54/3 30/55/3 28/56/3 26/57/3 24/58/3 22/59/3
f 35/48/17 36/47/17 38/60/17 37/61/17
f 37/61/18 38/60/18 18/62/18 17/63/18
f 17/64/1 19/65/1 21/66/1 23/67/1 25/68/1 27/69/1 29/70/1 31/71/1 33/72/1 35/73/1 37/74/1
f 39/75/9 41/76/9 42/77/9 40/78/9
f 41/76/10 43/79/10 44/80/10 42/77/10
f 43/79/11 45/81/11 46/82/11 44/80/11
f 45/81/12 47/83/12 48/84/12 46/82/12
f 47/83/13 49/85/13 50/86/13 48/84/13
f 49/85/4 51/87/4 52/88/4 50/86/4
f 51/87/14 53/89/14 54/90/14 52/88/14
f 53/89/15 55/91/15 56/92/15 54/90/15
f 55/91/16 57/93/16 58/94/16 56/92/16
f 42/95/1 44/96/1 46/97/1 48/98/1 50/99/1 52/100/1 54/101/1 56/102/1 58/103/1 60/104/1 40/105/1
f 57/93/17 59/106/17 60/107/17 58/94/17
f 59/106/18 39/108/18 40/109/18 60/107/18
f 39/110/3 59/111/3 57/112/3 55/113/3 53/114/3 51/115/3 49/116/3 47/117/3 45/118/3 43/119/3 41/120/3
f 61/121/19 63/122/19 64/123/19 62/124/19
f 63/122/20 65/125/20 66/126/20 64/123/20
f 65/125/21 67/127/21 68/128/21 66/126/21
f 67/127/22 69/129/22 70/130/22 68/128/22
f 69/129/23 71/131/23 72/132/23 70/130/23
f 71/131/7 73/133/7 74/134/7 72/132/7
f 73/133/24 75/135/24 76/136/24 74/134/24
f 75/135/25 77/137/25 78/138/25 76/136/25
f 77/137/26 79/139/26 80/140/26 78/138/26
f 64/141/3 66/142/3 68/143/3 70/144/3 72/145/3 74/146/3 76/147/3 78/148/3 80/149/3 82/150/3 62/151/3
f 79/139/27 81/152/27 82/153/27 80/140/27
f 81/152/28 61/154/28 62/155/28 82/153/28
f 61/156/1 81/157/1 79/158/1 77/159/1 75/160/1 73/161/1 71/162/1 69/163/1 67/164/1 65/165/1 63/166/1
f 83/167/19 84/168/19 86/169/19 85/170/19
f 85/170/20 86/169/20 88/171/20 87/172/20
f 87/172/21 88/171/21 90/173/21 89/174/21
f 89/174/22 90/173/22 92/175/22 91/176/22
f 91/176/23 92/175/23 94/177/23 93/178/23
f 93/178/7 94/177/7 96/179/7 95/180/7
f 95/180/24 96/179/24 98/181/24 97/182/24
f 97/182/25 98/181/25 100/183/25 99/184/25
f 99/184/26 100/183/26 102/185/26 101/186/26
f 86/187/1 84/188/1 104/189/1 102/190/1 100/191/1 98/192/1 96/193/1 94/194/1 92/195/1 90/196/1 88/197/1
f 101/186/27 102/185/27 104/198/27 103/199/27
f 103/199/28 104/198/28 84/200/28 83/201/28
f 83/202/3 85/203/3 87/204/3 89/205/3 91/206/3 93/207/3 95/208/3 97/209/3 99/210/3 101/211/3 103/212/3
